<svg xmlns="http://www.w3.org/2000/svg" viewBox="0 0 200 200"><defs><clipPath id="clip-path"><circle class="cls-1" cx="100" cy="100" r="95.94"/></clipPath><style>.cls-1{fill:none}.cls-7{fill:#fabf97}.cls-13{opacity:.2;fill:#58595b}</style></defs><g style="isolation:isolate"><g id="nav_redesign" data-name="nav redesign"><circle cx="100" cy="100" r="95.93" fill="#004e7c"/><g clip-path="url(#clip-path)"><circle class="cls-1" cx="100.28" cy="100" r="95.94"/><path d="M-78.39 84.56c9.6 2.79 27.26 43.36 34.65 53 8.62-6.12 53.54-46.07 67.18-48.86 2-.42 12.83-2.91 11.55 2.4C33.8 96 18 101.54 18 101.54c6.33 10.4 29.38-4.34 32.69-5.35 5.22-1.57 8.24-1 9.06 2.23.62 2.43-.19 6.17-7.76 9.14 2.68 1.28 2.68 4.19 1 6.34-1.49 1.9-6.62 4.3-6.9 4.11 11.26 7.56-14.85 12.74-14.85 12.74-6.06 1.33-7 1.29-12.51.31-4.65-.83-10.82-3.9-15.39-6.23-7.37-4.5-14.52-.4-14.52-.4-.54.92-27.88 30.4-35.2 29.63-11.31-4.73-36.34-44.16-37.27-45.14" fill="#b67147"/><path d="M52 107.56c-4.43 2.53-22.74 5-22.87 5.07m17.47 5.27c-.12.24-12.44 3.63-15 3.32M26 106.06s6.5 13.87 5 19.6" style="mix-blend-mode:multiply" fill="#b67147" opacity=".35"/><path class="cls-7" d="M240.42 74.09c-8.49 4.61-16.8 46.56-21.78 57.19-9.4-4-60-32.45-73.5-32.28-2 0-9.89-.61-10.41 4.64-.48 4.81 16 8 16 8-3.84 11.12-26.43.27-29.76 0-5.26-.41-8 .77-8.1 4-.08 2.43 1.46 5.79 9.21 7-2.26 1.76-1.66 4.51.37 6.19a9.88 9.88 0 007.36 2.46c-.22 5.13 16.65 9 16.65 9 4.83 1.36 6 1.35 11.87-2.29a134.33 134.33 0 0013.25-9 14.49 14.49 0 0113.63-3.37c.69.76 32.59 23 39.34 20.72 9.71-6.8 25.21-49.19 25.88-50.31"/><path d="M164.37 132.45a136.28 136.28 0 01-14.87 6c-6.51 2.3-7.65 2.06-12.08-.3 0 0-15.66-7.35-14.36-12.31a10 10 0 01-6.67-4c-1.62-2.07-1.62-4.89 1-6.12-7.31-2.87-8.1-6.49-7.5-8.83.79-3.11 3.71-3.68 8.76-2.16 3.2 1 24.14 19.7 30.26 9.66z" style="mix-blend-mode:multiply" opacity=".2" fill="#ebc7b3"/><rect x="58.1" y="41.8" width="81.69" height="113.29" rx="1.02" fill="#f5f5f5"/><path fill="#0d456e" d="M62.38 48.41h73.74v34.13H62.38z"/><circle cx="99.24" cy="65.52" r="14.39" fill="#fff"/><path d="M89.23 63.68a1.34 1.34 0 011.35-1.34h4.3a1.28 1.28 0 001.28-1.28v-4.3a1.35 1.35 0 011.35-1.34H101a1.35 1.35 0 011.34 1.35v4.3a1.28 1.28 0 001.28 1.29h4.3a1.34 1.34 0 011.34 1.36v3.49a1.34 1.34 0 01-1.35 1.34h-4.3a1.28 1.28 0 00-1.28 1.28v4.3a1.35 1.35 0 01-1.33 1.36h-3.5a1.35 1.35 0 01-1.34-1.35v-4.32a1.27 1.27 0 00-1.27-1.28h-4.3a1.36 1.36 0 01-1.35-1.36z" fill="#d44242"/><rect class="cls-13" x="62.38" y="87.79" width="39.35" height="5.88" rx="1.22"/><rect class="cls-13" x="62.38" y="100.38" width="39.35" height="5.88" rx="1.22"/><rect class="cls-13" x="62.38" y="112.97" width="39.35" height="5.88" rx="1.22"/><rect class="cls-13" x="62.38" y="124.64" width="73.28" height="24.26" rx="3.38"/><path d="M109.55 113.26a5.81 5.81 0 015.81-5.81h12.72a5.81 5.81 0 015.81 5.81v5.81h-24.34zM129.83 98a8.11 8.11 0 10-16.22 0 8.11 8.11 0 1016.22 0z" fill-rule="evenodd" fill="#58595b" opacity=".2"/><path class="cls-7" d="M166.39 132.14a135 135 0 01-14.87 6c-6.52 2.3-7.66 2.06-12.09-.29 0 0-15.66-7.36-14.36-12.32a9.86 9.86 0 01-6.66-4c-1.62-2.07-1.63-4.89 1-6.12-7.31-2.88-8.1-6.49-7.5-8.84.8-3.1 3.71-3.68 8.76-2.15 3.2 1 23.56 16.35 29.67 6.31z"/><path d="M114.08 104.6s3.91-.31 6.38 2.36c0 0 1.2 5-2 6s-6-3.47-6-3.47a4.17 4.17 0 011.62-4.89zm5.14 11.82a6.78 6.78 0 015.06 1.87s.94 4-1.57 4.73-4.79-2.74-4.79-2.74a3.31 3.31 0 011.3-3.86zm.15-.97s18.17 8.94 20.26 8.13m-14.76 2.09s18.17 8.94 20.26 8.13" fill="#efd2c2"/></g></g></g></svg>